<?xml version="1.0" encoding="UTF-8" standalone="no"?><!-- Generator: Gravit.io --><svg xmlns="http://www.w3.org/2000/svg" xmlns:xlink="http://www.w3.org/1999/xlink" style="isolation:isolate" viewBox="0 0 512 148.9" width="512pt" height="148.9pt"><g><g><path d=" M 395.478 100.691 L 395.478 100.691 Q 397.84 100.691 399.592 101.47 L 399.592 101.47 L 399.592 101.47 Q 401.344 102.249 402.279 103.702 L 402.279 103.702 L 402.279 103.702 Q 403.213 105.156 403.213 107.155 L 403.213 107.155 L 403.213 107.155 Q 403.213 109.127 402.279 110.594 L 402.279 110.594 L 402.279 110.594 Q 401.344 112.061 399.592 112.839 L 399.592 112.839 L 399.592 112.839 Q 397.84 113.618 395.478 113.618 L 395.478 113.618 L 391.377 113.618 L 391.377 118.861 L 388.002 118.861 L 388.002 100.691 L 395.478 100.691 Z  M 395.322 110.763 L 395.322 110.763 Q 397.529 110.763 398.671 109.828 L 398.671 109.828 L 398.671 109.828 Q 399.813 108.894 399.813 107.155 L 399.813 107.155 L 399.813 107.155 Q 399.813 105.416 398.671 104.481 L 398.671 104.481 L 398.671 104.481 Q 397.529 103.547 395.322 103.547 L 395.322 103.547 L 391.377 103.547 L 391.377 110.763 L 395.322 110.763 Z  M 419.281 118.861 L 417.464 114.656 L 408.379 114.656 L 406.588 118.861 L 403.109 118.861 L 411.286 100.691 L 414.608 100.691 L 422.811 118.861 L 419.281 118.861 Z  M 409.521 112.009 L 416.348 112.009 L 412.921 104.066 L 409.521 112.009 Z  M 433.272 119.121 L 433.272 119.121 Q 430.52 119.121 428.301 117.914 L 428.301 117.914 L 428.301 117.914 Q 426.082 116.707 424.823 114.578 L 424.823 114.578 L 424.823 114.578 Q 423.564 112.45 423.564 109.776 L 423.564 109.776 L 423.564 109.776 Q 423.564 107.103 424.836 104.974 L 424.836 104.974 L 424.836 104.974 Q 426.107 102.846 428.327 101.639 L 428.327 101.639 L 428.327 101.639 Q 430.546 100.432 433.298 100.432 L 433.298 100.432 L 433.298 100.432 Q 435.53 100.432 437.373 101.211 L 437.373 101.211 L 437.373 101.211 Q 439.216 101.989 440.488 103.469 L 440.488 103.469 L 438.307 105.519 L 438.307 105.519 Q 436.335 103.391 433.453 103.391 L 433.453 103.391 L 433.453 103.391 Q 431.584 103.391 430.105 104.209 L 430.105 104.209 L 430.105 104.209 Q 428.625 105.026 427.795 106.48 L 427.795 106.48 L 427.795 106.48 Q 426.964 107.933 426.964 109.776 L 426.964 109.776 L 426.964 109.776 Q 426.964 111.619 427.795 113.073 L 427.795 113.073 L 427.795 113.073 Q 428.625 114.527 430.105 115.344 L 430.105 115.344 L 430.105 115.344 Q 431.584 116.162 433.453 116.162 L 433.453 116.162 L 433.453 116.162 Q 436.335 116.162 438.307 114.007 L 438.307 114.007 L 440.488 116.084 L 440.488 116.084 Q 439.216 117.564 437.36 118.342 L 437.36 118.342 L 437.36 118.342 Q 435.504 119.121 433.272 119.121 L 433.272 119.121 Z  M 456.4 118.861 L 449.988 111.256 L 447.107 114.215 L 447.107 118.861 L 443.732 118.861 L 443.732 100.691 L 447.107 100.691 L 447.107 110.01 L 456.088 100.691 L 459.878 100.691 L 452.246 108.816 L 460.345 118.861 L 456.4 118.861 Z  M 466.03 116.032 L 476.283 116.032 L 476.283 118.861 L 462.655 118.861 L 462.655 100.691 L 475.919 100.691 L 475.919 103.521 L 466.03 103.521 L 466.03 108.245 L 474.803 108.245 L 474.803 111.022 L 466.03 111.022 L 466.03 116.032 Z  M 495.569 118.861 L 491.935 118.861 L 488.223 113.54 L 488.223 113.54 Q 487.99 113.566 487.522 113.566 L 487.522 113.566 L 483.421 113.566 L 483.421 118.861 L 480.047 118.861 L 480.047 100.691 L 487.522 100.691 L 487.522 100.691 Q 489.884 100.691 491.637 101.47 L 491.637 101.47 L 491.637 101.47 Q 493.389 102.249 494.323 103.702 L 494.323 103.702 L 494.323 103.702 Q 495.258 105.156 495.258 107.155 L 495.258 107.155 L 495.258 107.155 Q 495.258 109.205 494.258 110.685 L 494.258 110.685 L 494.258 110.685 Q 493.259 112.164 491.39 112.891 L 491.39 112.891 L 495.569 118.861 Z  M 491.857 107.155 L 491.857 107.155 Q 491.857 105.416 490.715 104.481 L 490.715 104.481 L 490.715 104.481 Q 489.573 103.547 487.367 103.547 L 487.367 103.547 L 483.421 103.547 L 483.421 110.789 L 487.367 110.789 L 487.367 110.789 Q 489.573 110.789 490.715 109.841 L 490.715 109.841 L 490.715 109.841 Q 491.857 108.894 491.857 107.155 L 491.857 107.155 Z  M 504.654 119.121 L 504.654 119.121 Q 502.552 119.121 500.592 118.524 L 500.592 118.524 L 500.592 118.524 Q 498.632 117.927 497.49 116.941 L 497.49 116.941 L 498.658 114.319 L 498.658 114.319 Q 499.774 115.201 501.396 115.76 L 501.396 115.76 L 501.396 115.76 Q 503.019 116.318 504.654 116.318 L 504.654 116.318 L 504.654 116.318 Q 506.679 116.318 507.678 115.669 L 507.678 115.669 L 507.678 115.669 Q 508.677 115.02 508.677 113.955 L 508.677 113.955 L 508.677 113.955 Q 508.677 113.177 508.119 112.671 L 508.119 112.671 L 508.119 112.671 Q 507.561 112.164 506.705 111.879 L 506.705 111.879 L 506.705 111.879 Q 505.848 111.593 504.369 111.23 L 504.369 111.23 L 504.369 111.23 Q 502.292 110.737 501.007 110.244 L 501.007 110.244 L 501.007 110.244 Q 499.722 109.75 498.801 108.699 L 498.801 108.699 L 498.801 108.699 Q 497.879 107.648 497.879 105.857 L 497.879 105.857 L 497.879 105.857 Q 497.879 104.351 498.697 103.118 L 498.697 103.118 L 498.697 103.118 Q 499.515 101.885 501.163 101.159 L 501.163 101.159 L 501.163 101.159 Q 502.811 100.432 505.199 100.432 L 505.199 100.432 L 505.199 100.432 Q 506.86 100.432 508.47 100.847 L 508.47 100.847 L 508.47 100.847 Q 510.079 101.262 511.247 102.041 L 511.247 102.041 L 510.183 104.663 L 510.183 104.663 Q 508.989 103.962 507.691 103.599 L 507.691 103.599 L 507.691 103.599 Q 506.393 103.235 505.173 103.235 L 505.173 103.235 L 505.173 103.235 Q 503.175 103.235 502.201 103.91 L 502.201 103.91 L 502.201 103.91 Q 501.228 104.585 501.228 105.701 L 501.228 105.701 L 501.228 105.701 Q 501.228 106.48 501.786 106.973 L 501.786 106.973 L 501.786 106.973 Q 502.344 107.466 503.2 107.752 L 503.2 107.752 L 503.2 107.752 Q 504.057 108.037 505.537 108.401 L 505.537 108.401 L 505.537 108.401 Q 507.561 108.868 508.859 109.374 L 508.859 109.374 L 508.859 109.374 Q 510.157 109.88 511.078 110.918 L 511.078 110.918 L 511.078 110.918 Q 512 111.957 512 113.722 L 512 113.722 L 512 113.722 Q 512 115.227 511.182 116.447 L 511.182 116.447 L 511.182 116.447 Q 510.365 117.667 508.703 118.394 L 508.703 118.394 L 508.703 118.394 Q 507.042 119.121 504.654 119.121 L 504.654 119.121 Z  M 332.532 118.861 L 330.715 114.656 L 321.63 114.656 L 319.839 118.861 L 316.36 118.861 L 324.537 100.691 L 327.859 100.691 L 336.062 118.861 L 332.532 118.861 Z  M 322.772 112.009 L 329.598 112.009 L 326.172 104.066 L 322.772 112.009 Z  M 351.169 100.691 L 354.517 100.691 L 354.517 118.861 L 351.74 118.861 L 341.72 106.558 L 341.72 118.861 L 338.372 118.861 L 338.372 100.691 L 341.149 100.691 L 351.169 112.995 L 351.169 100.691 Z  M 359.397 118.861 L 359.397 100.691 L 367.34 100.691 L 367.34 100.691 Q 370.247 100.691 372.506 101.821 L 372.506 101.821 L 372.506 101.821 Q 374.764 102.95 376.01 105.013 L 376.01 105.013 L 376.01 105.013 Q 377.256 107.077 377.256 109.776 L 377.256 109.776 L 377.256 109.776 Q 377.256 112.476 376.01 114.54 L 376.01 114.54 L 376.01 114.54 Q 374.764 116.603 372.506 117.732 L 372.506 117.732 L 372.506 117.732 Q 370.247 118.861 367.34 118.861 L 367.34 118.861 L 359.397 118.861 Z  M 362.772 116.006 L 367.185 116.006 L 367.185 116.006 Q 369.183 116.006 370.702 115.24 L 370.702 115.24 L 370.702 115.24 Q 372.22 114.475 373.038 113.06 L 373.038 113.06 L 373.038 113.06 Q 373.856 111.645 373.856 109.776 L 373.856 109.776 L 373.856 109.776 Q 373.856 107.907 373.038 106.493 L 373.038 106.493 L 373.038 106.493 Q 372.22 105.078 370.702 104.312 L 370.702 104.312 L 370.702 104.312 Q 369.183 103.547 367.185 103.547 L 367.185 103.547 L 362.772 103.547 L 362.772 116.006 Z  M 214.348 118.861 L 211.156 118.861 L 211.13 106.817 L 205.159 116.785 L 203.654 116.785 L 197.684 106.973 L 197.684 118.861 L 194.465 118.861 L 194.465 100.691 L 197.242 100.691 L 204.459 112.736 L 211.545 100.691 L 214.322 100.691 L 214.348 118.861 Z  M 227.742 119.121 L 227.742 119.121 Q 224.965 119.121 222.732 117.914 L 222.732 117.914 L 222.732 117.914 Q 220.5 116.707 219.228 114.565 L 219.228 114.565 L 219.228 114.565 Q 217.956 112.424 217.956 109.776 L 217.956 109.776 L 217.956 109.776 Q 217.956 107.129 219.228 104.987 L 219.228 104.987 L 219.228 104.987 Q 220.5 102.846 222.732 101.639 L 222.732 101.639 L 222.732 101.639 Q 224.965 100.432 227.742 100.432 L 227.742 100.432 L 227.742 100.432 Q 230.52 100.432 232.752 101.639 L 232.752 101.639 L 232.752 101.639 Q 234.984 102.846 236.256 104.974 L 236.256 104.974 L 236.256 104.974 Q 237.528 107.103 237.528 109.776 L 237.528 109.776 L 237.528 109.776 Q 237.528 112.45 236.256 114.578 L 236.256 114.578 L 236.256 114.578 Q 234.984 116.707 232.752 117.914 L 232.752 117.914 L 232.752 117.914 Q 230.52 119.121 227.742 119.121 L 227.742 119.121 Z  M 227.742 116.162 L 227.742 116.162 Q 229.559 116.162 231.013 115.344 L 231.013 115.344 L 231.013 115.344 Q 232.466 114.527 233.297 113.06 L 233.297 113.06 L 233.297 113.06 Q 234.128 111.593 234.128 109.776 L 234.128 109.776 L 234.128 109.776 Q 234.128 107.959 233.297 106.493 L 233.297 106.493 L 233.297 106.493 Q 232.466 105.026 231.013 104.209 L 231.013 104.209 L 231.013 104.209 Q 229.559 103.391 227.742 103.391 L 227.742 103.391 L 227.742 103.391 Q 225.925 103.391 224.472 104.209 L 224.472 104.209 L 224.472 104.209 Q 223.018 105.026 222.187 106.493 L 222.187 106.493 L 222.187 106.493 Q 221.357 107.959 221.357 109.776 L 221.357 109.776 L 221.357 109.776 Q 221.357 111.593 222.187 113.06 L 222.187 113.06 L 222.187 113.06 Q 223.018 114.527 224.472 115.344 L 224.472 115.344 L 224.472 115.344 Q 225.925 116.162 227.742 116.162 L 227.742 116.162 Z  M 253.777 100.691 L 257.152 100.691 L 249.235 118.861 L 245.912 118.861 L 237.969 100.691 L 241.629 100.691 L 247.677 114.708 L 253.777 100.691 Z  M 262.447 116.032 L 272.7 116.032 L 272.7 118.861 L 259.073 118.861 L 259.073 100.691 L 272.337 100.691 L 272.337 103.521 L 262.447 103.521 L 262.447 108.245 L 271.221 108.245 L 271.221 111.022 L 262.447 111.022 L 262.447 116.032 Z  M 291.986 118.861 L 288.352 118.861 L 284.64 113.54 L 284.64 113.54 Q 284.407 113.566 283.94 113.566 L 283.94 113.566 L 279.838 113.566 L 279.838 118.861 L 276.464 118.861 L 276.464 100.691 L 283.94 100.691 L 283.94 100.691 Q 286.302 100.691 288.054 101.47 L 288.054 101.47 L 288.054 101.47 Q 289.806 102.249 290.74 103.702 L 290.74 103.702 L 290.74 103.702 Q 291.675 105.156 291.675 107.155 L 291.675 107.155 L 291.675 107.155 Q 291.675 109.205 290.676 110.685 L 290.676 110.685 L 290.676 110.685 Q 289.676 112.164 287.807 112.891 L 287.807 112.891 L 291.986 118.861 Z  M 288.275 107.155 L 288.275 107.155 Q 288.275 105.416 287.132 104.481 L 287.132 104.481 L 287.132 104.481 Q 285.99 103.547 283.784 103.547 L 283.784 103.547 L 279.838 103.547 L 279.838 110.789 L 283.784 110.789 L 283.784 110.789 Q 285.99 110.789 287.132 109.841 L 287.132 109.841 L 287.132 109.841 Q 288.275 108.894 288.275 107.155 L 288.275 107.155 Z  M 301.071 119.121 L 301.071 119.121 Q 298.969 119.121 297.009 118.524 L 297.009 118.524 L 297.009 118.524 Q 295.049 117.927 293.907 116.941 L 293.907 116.941 L 295.075 114.319 L 295.075 114.319 Q 296.191 115.201 297.814 115.76 L 297.814 115.76 L 297.814 115.76 Q 299.436 116.318 301.071 116.318 L 301.071 116.318 L 301.071 116.318 Q 303.096 116.318 304.095 115.669 L 304.095 115.669 L 304.095 115.669 Q 305.095 115.02 305.095 113.955 L 305.095 113.955 L 305.095 113.955 Q 305.095 113.177 304.537 112.671 L 304.537 112.671 L 304.537 112.671 Q 303.979 112.164 303.122 111.879 L 303.122 111.879 L 303.122 111.879 Q 302.265 111.593 300.786 111.23 L 300.786 111.23 L 300.786 111.23 Q 298.709 110.737 297.424 110.244 L 297.424 110.244 L 297.424 110.244 Q 296.14 109.75 295.218 108.699 L 295.218 108.699 L 295.218 108.699 Q 294.297 107.648 294.297 105.857 L 294.297 105.857 L 294.297 105.857 Q 294.297 104.351 295.114 103.118 L 295.114 103.118 L 295.114 103.118 Q 295.932 101.885 297.58 101.159 L 297.58 101.159 L 297.58 101.159 Q 299.228 100.432 301.617 100.432 L 301.617 100.432 L 301.617 100.432 Q 303.278 100.432 304.887 100.847 L 304.887 100.847 L 304.887 100.847 Q 306.497 101.262 307.665 102.041 L 307.665 102.041 L 306.6 104.663 L 306.6 104.663 Q 305.406 103.962 304.108 103.599 L 304.108 103.599 L 304.108 103.599 Q 302.811 103.235 301.591 103.235 L 301.591 103.235 L 301.591 103.235 Q 299.592 103.235 298.618 103.91 L 298.618 103.91 L 298.618 103.91 Q 297.645 104.585 297.645 105.701 L 297.645 105.701 L 297.645 105.701 Q 297.645 106.48 298.203 106.973 L 298.203 106.973 L 298.203 106.973 Q 298.761 107.466 299.618 107.752 L 299.618 107.752 L 299.618 107.752 Q 300.474 108.037 301.954 108.401 L 301.954 108.401 L 301.954 108.401 Q 303.979 108.868 305.277 109.374 L 305.277 109.374 L 305.277 109.374 Q 306.574 109.88 307.496 110.918 L 307.496 110.918 L 307.496 110.918 Q 308.417 111.957 308.417 113.722 L 308.417 113.722 L 308.417 113.722 Q 308.417 115.227 307.6 116.447 L 307.6 116.447 L 307.6 116.447 Q 306.782 117.667 305.121 118.394 L 305.121 118.394 L 305.121 118.394 Q 303.459 119.121 301.071 119.121 L 301.071 119.121 Z " fill="rgb(46,46,46)"/><path d=" M 194.465 83.915 C 194.465 83.602 201.115 71.399 209.25 56.77 L 224.036 30.171 L 234.988 29.937 C 243.124 29.78 246.097 30.015 246.644 30.719 C 247.661 31.971 275.824 83.524 275.824 84.15 C 275.824 84.385 271.834 84.541 266.906 84.541 L 257.909 84.541 L 255.328 79.847 L 252.746 75.154 L 235.066 75.154 L 217.386 75.154 L 214.883 79.847 L 212.38 84.541 L 203.383 84.541 C 198.455 84.541 194.465 84.306 194.465 83.915 Z  M 241.246 52.467 C 236.24 42.845 235.379 41.749 234.519 42.923 C 233.345 44.409 224.192 62.246 224.192 62.95 C 224.192 63.184 229.277 63.419 235.614 63.419 L 246.957 63.419 L 241.246 52.467 Z " fill="rgb(46,46,46)"/><path d=" M 285.368 57.395 L 285.603 30.171 L 307.507 29.937 C 339.816 29.624 345.84 30.797 349.438 38.151 C 351.003 41.358 351.238 43.079 351.316 50.511 C 351.316 58.099 351.081 59.586 349.36 62.95 C 345.683 70.382 342.398 71.242 318.772 71.242 L 302.422 71.242 L 302.422 77.892 L 302.422 84.541 L 293.817 84.541 L 285.212 84.541 L 285.368 57.395 Z  M 329.412 57.161 C 333.558 56.222 334.731 54.501 334.262 49.807 C 333.714 44.018 333.401 43.862 316.738 43.862 L 302.422 43.862 L 302.422 50.902 L 302.422 57.943 L 314.391 57.943 C 320.884 57.943 327.69 57.552 329.412 57.161 Z " fill="rgb(46,46,46)"/><path d=" M 363.207 42.532 C 362.894 42.297 362.659 39.246 362.659 35.882 L 362.659 29.78 L 393.012 29.937 L 423.287 30.171 L 423.287 36.43 L 423.287 42.688 L 393.482 42.923 C 377.132 43.001 363.52 42.845 363.207 42.532 Z " fill="rgb(237,28,36)"/><path d=" M 362.659 67.722 L 362.659 50.902 L 393.169 50.902 L 423.678 50.902 L 423.678 57.161 L 423.678 63.419 L 399.427 63.419 L 375.176 63.419 L 375.176 67.722 L 375.176 72.024 L 399.427 72.024 L 423.678 72.024 L 423.678 78.283 L 423.678 84.541 L 393.169 84.541 L 362.659 84.541 L 362.659 67.722 Z " fill="rgb(46,46,46)"/><path d=" M 440.107 75.31 C 445.505 70.303 452.154 64.045 454.814 61.463 L 459.821 56.691 L 446.209 43.862 C 438.777 36.821 432.597 30.797 432.44 30.406 C 432.284 30.093 437.056 29.78 443.001 29.78 L 453.797 29.78 L 462.637 38.073 L 471.399 46.365 L 480.239 38.073 L 489 29.78 L 499.405 29.78 C 505.194 29.78 509.731 30.093 509.575 30.484 C 509.497 30.875 503.316 36.821 495.963 43.783 L 482.507 56.535 L 488.922 62.559 C 492.364 65.922 499.014 72.103 503.629 76.405 L 512 84.15 L 500.657 84.385 L 489.313 84.619 L 480.239 76.014 L 471.164 67.409 L 462.011 76.014 L 452.858 84.541 L 441.593 84.541 L 430.328 84.463 L 440.107 75.31 Z " fill="rgb(46,46,46)"/></g><g><path d=" M 168.101 145.9 C 159.514 138.366 143.393 129.131 130.999 124.676 C 123.951 122.165 114.716 119.815 106.615 118.519 C 99.567 117.385 99.729 117.142 111.556 113.254 C 120.629 110.256 135.373 107.421 143.312 107.016 L 148.092 106.773 L 160.243 127.673 C 166.886 139.177 172.151 148.736 172.07 148.898 C 171.908 148.979 170.126 147.683 168.101 145.9 Z " fill="rgb(237,28,36)"/><path d=" M 6.163 137.394 C 9.728 131.238 29.089 97.7 49.179 62.785 C 69.351 27.951 86.039 -0.321 86.363 0.003 C 86.687 0.408 92.6 10.534 99.567 22.523 C 111.637 43.424 112.124 44.477 110.665 45.611 C 109.774 46.259 104.347 50.228 98.514 54.441 C 68.298 76.07 39.053 103.451 9.89 137.394 C 4.543 143.47 0.169 148.493 0.007 148.493 C -0.155 148.493 2.599 143.47 6.163 137.394 Z " fill="rgb(237,28,36)"/><path d=" M 44.157 122.813 C 44.157 121.76 57.118 105.72 64.328 97.943 C 77.209 83.847 95.031 68.294 111.151 56.952 L 116.984 52.902 L 121.359 60.355 C 134.32 82.632 142.178 96.485 142.178 97.295 C 142.178 98.024 139.424 98.267 132.943 98.267 C 107.101 98.267 78.019 105.639 53.311 118.438 C 48.288 121.111 44.157 123.056 44.157 122.813 Z " fill="rgb(237,28,36)"/></g></g></svg>